# xmcd
#
# Track frame offsets: 
#        150
#        14988
#        29258
#        44393
#        57990
#        72010
#        83090
#        97878
#        110563
#        128243
#        151513
#        164863
#
# Disc length: 2367 seconds
#
# Revision: 2
# Processed by: cddbd v1.5.2PL0 Copyright (c) Steve Scherf et al.
# Submitted via: ExactAudioCopyFreeDBPlugin 1.0
#
DISCID=9b093d0c
DTITLE=Various Artist - Soul of Vietnam
DYEAR=1993
DGENRE=Soul
TTITLE0=William Bell - Marching Off to War
TTITLE1=Roy C - Open Letter to the President
TTITLE2=Mighty Hannibal - Hymn #5
TTITLE3=Joe Tex - I Believe I'm Gonna Make It
TTITLE4=Johnny and Jon - Christmas in Vietnam
TTITLE5=The O'Jays - There is Someone Waiting Back Home
TTITLE6=The Impressions - Choice of Colors
TTITLE7=Joe Tex - When Johnny Comes Marching Home
TTITLE8=Swamp Dogg - Sam Stone
TTITLE9=Delia Gartrell - Can't You See What You've Done (Hymn #9)
TTITLE10=Martha and The Vandellas - I Should Be Proud
TTITLE11=William Bell - Soldier's Goodbye
EXTD=
EXTT0=
EXTT1=
EXTT2=
EXTT3=
EXTT4=
EXTT5=
EXTT6=
EXTT7=
EXTT8=
EXTT9=
EXTT10=
EXTT11=
PLAYORDER=
